<svg preserveAspectRatio="none" width="100%" height="100%" overflow="visible" style="display: block;" viewBox="0 0 24.8269 24" fill="none" xmlns="http://www.w3.org/2000/svg">
<g id="Group">
<path id="Vector" d="M13.2933 0.0808227C12.8906 0.139996 12.4894 0.2035 12.0868 0.26556C10.3716 0.53112 8.6622 0.819773 6.95571 1.1676C6.10537 1.34079 5.25504 1.52553 4.41197 1.75934C3.98753 1.87335 3.5689 1.99892 3.14882 2.16056C3.04417 2.19809 2.94096 2.24716 2.8363 2.29334C2.74037 2.33087 2.60374 2.40447 2.50199 2.48674C2.29413 2.65849 2.15458 2.86488 2.04266 3.0727C1.82317 3.49125 1.70689 3.93145 1.61822 4.36587C1.53391 4.80606 1.4874 5.24626 1.46269 5.68357C1.41617 6.56107 1.45396 7.43857 1.54409 8.30453C1.73014 10.0393 2.12406 11.7482 2.69822 13.3906C2.85956 13.8524 3.0369 14.3085 3.22877 14.7588C3.2404 14.7559 3.24767 14.753 3.25639 14.7473C4.09364 14.346 4.93089 13.9217 5.71 13.4541C5.55738 13.1395 5.40621 12.8219 5.26957 12.4958C4.97159 11.7871 4.6896 11.0597 4.46284 10.315C4.23318 9.56883 4.04713 8.81111 3.8945 8.0534C3.74188 7.29569 3.64303 6.52787 3.6096 5.79614C3.59071 5.42955 3.59071 5.07162 3.61251 4.74256C3.62995 4.48854 3.70263 4.07722 3.75205 3.83908C3.77095 3.82897 3.78839 3.81887 3.81165 3.80877C4.11254 3.65723 13.6668 0.546996 13.8529 0.497925V0C13.6668 0.027422 13.4808 0.054844 13.2918 0.0808227H13.2933Z" fill="var(--fill-0, #233E93)"/>
<path id="Vector_2" d="M24.8269 2.60941L24.8051 3.1694C24.7833 3.70196 24.7586 4.23452 24.7208 4.76564C24.6874 5.24625 24.6525 5.72686 24.606 6.20458C24.5013 7.27692 24.3632 8.34493 24.1815 9.40573C23.8239 11.4696 23.3007 13.5176 22.507 15.4761C22.1102 16.4517 21.6479 17.4072 21.0956 18.3135C20.5461 19.2199 19.9109 20.0844 19.1696 20.858C18.4341 21.6316 17.594 22.3215 16.6666 22.8699C16.2014 23.147 15.7145 23.3837 15.2057 23.5786C14.9543 23.6738 14.6941 23.7604 14.431 23.8311C14.2973 23.8658 14.1635 23.899 14.0284 23.9264C13.9688 23.9394 13.9106 23.9509 13.851 23.9596C13.774 23.9755 13.6926 23.987 13.5996 23.9942L13.5559 24L13.5094 23.9885C13.4353 23.9755 13.3612 23.9581 13.2899 23.9423C11.6271 23.5728 10.0412 22.8642 8.66179 21.8755C7.21986 20.8407 6.00613 19.5259 5.02352 18.0769C4.82438 17.781 4.63542 17.4765 4.45227 17.1705C4.63251 17.1026 4.81566 17.0377 4.9959 16.9771C5.78374 16.713 6.57884 16.4777 7.3594 16.2006C7.40882 16.2684 7.45824 16.3392 7.50767 16.407C7.9481 16.9886 8.42632 17.5255 8.93216 18.0061C9.44091 18.4896 9.96855 18.924 10.5296 19.2877C11.0907 19.6543 11.6779 19.956 12.2855 20.1941C12.614 20.3269 12.9469 20.438 13.2899 20.5333C13.3059 20.5391 13.3205 20.5419 13.3365 20.5463H13.3423C13.4164 20.5679 13.4934 20.5867 13.569 20.6054C13.6592 20.578 13.7522 20.5434 13.851 20.5044C13.8975 20.4885 13.9411 20.4698 13.9877 20.4496C14.2915 20.3197 14.6112 20.1624 14.9208 19.9719C15.5415 19.5966 16.1346 19.103 16.6768 18.5243C16.9471 18.2313 17.2044 17.9181 17.4559 17.5905C17.7044 17.2614 17.9428 16.9136 18.1667 16.5528C18.6173 15.8282 19.0112 15.0345 19.3586 14.206C19.706 13.3718 20.02 12.5059 20.286 11.6096C20.552 10.7133 20.7613 9.78675 20.959 8.84719C21.0142 8.59462 21.0636 8.33916 21.1087 8.0837C20.8049 8.24391 20.504 8.40699 20.2002 8.5672C20.0112 8.66822 19.8223 8.76492 19.6362 8.86595C19.5214 8.92513 19.4065 8.98574 19.2946 9.04492C18.3484 9.53707 17.4108 10.0336 16.4616 10.517C15.5924 10.9572 14.7217 11.4018 13.8496 11.8391C13.6635 11.9343 13.4775 12.0267 13.2885 12.1191C13.2798 12.1248 13.2696 12.1277 13.2609 12.1321C12.1867 12.656 11.1198 13.1943 10.0383 13.7038L8.41905 14.4774L6.7896 15.238C6.7678 15.2466 6.7489 15.2567 6.7271 15.2683C5.84042 15.6753 4.94648 16.0693 4.05545 16.4691C3.8723 16.5499 3.68915 16.6321 3.506 16.713C2.96237 16.9627 2.4042 17.1907 1.84894 17.4274C1.29658 17.6641 0.741318 17.8979 0.177335 18.1173L0 17.8272L3.61066 15.5973L6.04247 14.0978L6.0759 14.0761C8.10217 12.8263 10.1241 11.5721 12.1591 10.3366L13.2914 9.64387L13.8525 9.30182L21.6174 4.5607L22.9692 3.73804L24.3472 2.89662L24.8254 2.60364L24.8269 2.60941Z" fill="var(--fill-0, #233E93)"/>
</g>
</svg>
