<svg preserveAspectRatio="none" width="100%" height="100%" overflow="visible" style="display: block;" viewBox="0 0 91.9435 16" fill="none" xmlns="http://www.w3.org/2000/svg">
<g id="Group">
<path id="Vector" d="M4.04822 7.04051V8.9616H5.64285V10.547C5.64285 11.8876 5.52378 12.7806 5.30904 13.2514C5.0943 13.72 4.69033 13.9438 4.0461 13.9438C3.40187 13.9438 2.97451 13.72 2.75977 13.2514C2.54502 12.7827 2.42596 11.8665 2.42596 10.547V5.47408C2.42596 4.15675 2.54502 3.26165 2.75977 2.79298C2.97451 2.32432 3.40187 2.07732 4.02271 2.07732C5.28565 2.07732 5.64285 2.74865 5.64285 5.07086L8.07093 4.75841C8.07093 1.45244 6.80799 0 4.0461 0C1.28421 0 0 1.51999 0 5.07297V10.9503C0 14.5032 1.16727 16 4.04822 16C6.92918 16 8.09645 14.5032 8.09645 10.9503V7.04051H4.04822Z" fill="var(--fill-0, #2D2E2D)"/>
<path id="Vector_2" d="M16.0973 0.17945V10.547C16.0973 11.8876 15.9782 12.7806 15.7635 13.2514C15.5487 13.72 15.1448 13.9438 14.5005 13.9438C13.8563 13.9438 13.4289 13.72 13.2142 13.2514C12.9995 12.7827 12.8804 11.8665 12.8804 10.547V0.17945H10.4523V10.9482C10.4523 14.5011 11.6196 15.9979 14.5005 15.9979C17.3815 15.9979 18.5488 14.5011 18.5488 10.9482V0.17945H16.0952H16.0973Z" fill="var(--fill-0, #2D2E2D)"/>
<path id="Vector_3" d="M25.7654 0.17945H22.574L19.6931 15.8206H22.2402L22.6931 12.9157H22.6974L23.0184 10.8595H23.0035L24.1708 3.50865L25.6421 12.9157H25.6463L26.0992 15.8206H28.6464L25.7654 0.17945Z" fill="var(--fill-0, #2D2E2D)"/>
<path id="Vector_4" d="M36.624 10.414C37.7913 9.76591 38.291 8.42537 38.291 6.21294V4.82806C38.291 1.61075 37.2194 0.181533 34.4809 0.181533H30.5751V15.8226H33.0032V10.8616H34.4787L36.05 15.8226H38.5036L36.6219 10.4161L36.624 10.414ZM36.0053 5.76538C36.0053 6.94971 35.9097 7.75404 35.6949 8.17837C35.4802 8.6027 35.0762 8.80325 34.4809 8.80325H33.0053V2.23352H34.4809C35.6949 2.23352 36.0053 2.94918 36.0053 5.29461V5.76327V5.76538Z" fill="var(--fill-0, #2D2E2D)"/>
<path id="Vector_5" d="M44.7872 0.17945H40.7389V15.8206H44.7872C47.6681 15.8206 48.8354 14.4357 48.8354 10.927V5.09619C48.8354 1.54322 47.6681 0.18156 44.7872 0.18156V0.17945ZM46.3839 10.5259C46.3839 13.2303 46.0735 13.7665 44.7893 13.7665H43.1692V2.23777H44.7893C46.0522 2.23777 46.3839 2.84154 46.3839 5.4783V10.528V10.5259Z" fill="var(--fill-0, #2D2E2D)"/>
<path id="Vector_6" d="M57.2779 13.7644V0.17945H54.8498V15.8206H60.7797V13.7644H57.28H57.2779Z" fill="var(--fill-0, #2D2E2D)"/>
<path id="Vector_7" d="M68.4401 0.17945H65.2487L62.3677 15.8206H64.9149L65.3677 12.9157H65.372L65.693 10.8595H65.6782L66.8454 3.50865L68.3189 12.9157H68.3231L68.776 15.8206H71.3231L68.4422 0.17945H68.4401Z" fill="var(--fill-0, #2D2E2D)"/>
<path id="Vector_8" d="M80.7978 8.71461C80.4406 8.20162 80.0111 7.91029 79.5114 7.84273V7.7984C80.4406 7.50707 81.0593 6.50219 81.0593 5.36219V3.12865C81.0593 0.895112 80.06 0.17945 77.3683 0.17945H73.2477V15.8206H77.3917C80.5341 15.8206 81.3442 14.9276 81.3442 12.6476V10.414C81.3442 9.78916 81.1528 9.22972 80.7956 8.71673L80.7978 8.71461ZM75.678 2.10266H77.2258C78.2506 2.10266 78.6312 2.43832 78.6312 3.41998V5.65352C78.6312 6.45785 78.0593 7.03841 77.2258 7.03841H75.678V2.10055V2.10266ZM78.8927 12.5357C78.8927 13.5406 78.5589 13.9206 77.4873 13.9206H75.678V8.9595H77.3917C78.4165 8.9595 78.8927 9.51894 78.8927 10.3233V12.5357Z" fill="var(--fill-0, #2D2E2D)"/>
<path id="Vector_9" d="M91.9434 5.14052V4.42486C91.9434 1.49888 90.706 0 87.942 0C85.1779 0 83.9448 1.5411 83.9448 4.4903V5.13841C83.9448 6.39029 84.1595 7.28329 84.5592 7.79628C84.9674 8.30928 85.7307 8.66816 86.8023 8.8455L88.0121 9.04605C89.2538 9.2466 89.4877 9.64982 89.4877 11.079V11.592C89.4877 13.3126 89.0858 13.9163 87.9398 13.9163C86.7938 13.9163 86.3728 13.3126 86.3728 11.592V10.8553H83.9448V11.592C83.9448 14.4737 85.1545 15.9937 87.942 15.9937C90.8718 15.9937 91.9434 14.4737 91.9434 11.5245V10.8532C91.92 8.55206 91.1567 7.36773 89.0624 7.09962L87.8484 6.96451C86.611 6.76395 86.375 6.36073 86.375 4.93152V4.41853C86.375 2.69798 86.8045 2.0731 87.942 2.0731C89.0795 2.0731 89.4898 2.69798 89.4898 4.41853V5.13419H91.9434V5.14052Z" fill="var(--fill-0, #2D2E2D)"/>
</g>
</svg>
