<svg preserveAspectRatio="none" width="100%" height="100%" overflow="visible" style="display: block;" viewBox="0 0 38.3137 37.4712" fill="none" xmlns="http://www.w3.org/2000/svg">
<g id="Group">
<path id="Vector" d="M20.514 0.126188C19.8926 0.218576 19.2735 0.317724 18.6521 0.414619C16.0052 0.829237 13.3672 1.27991 10.7337 1.82297C9.4214 2.09337 8.10913 2.3818 6.80808 2.74685C6.15307 2.92486 5.50703 3.12091 4.85875 3.37328C4.69724 3.43187 4.53797 3.50849 4.37646 3.58059C4.22841 3.63918 4.01755 3.7541 3.86053 3.88254C3.53975 4.15069 3.32441 4.47292 3.15168 4.79741C2.81296 5.45088 2.63351 6.13816 2.49667 6.81642C2.36657 7.5037 2.29478 8.19097 2.25665 8.87374C2.18487 10.2438 2.24319 11.6138 2.38227 12.9658C2.66939 15.6744 3.2773 18.3424 4.16336 20.9067C4.41235 21.6278 4.68602 22.3398 4.98213 23.0429C5.00007 23.0384 5.01129 23.0339 5.02475 23.0249C6.31682 22.3984 7.6089 21.7359 8.81125 21.0058C8.57571 20.5146 8.34242 20.0189 8.13156 19.5096C7.67171 18.4032 7.23653 17.2675 6.88659 16.1048C6.53217 14.9398 6.24504 13.7568 6.00951 12.5738C5.77397 11.3907 5.62143 10.192 5.56984 9.0495C5.54068 8.47715 5.54068 7.91832 5.57433 7.40455C5.60125 7.00796 5.7134 6.36575 5.78967 5.99394C5.81883 5.97817 5.84575 5.9624 5.88164 5.94662C6.34598 5.71002 21.0905 0.854024 21.3776 0.77741V0C21.0905 0.0428139 20.8033 0.0856278 20.5117 0.126188H20.514Z" fill="var(--fill-0, #224290)"/>
<path id="Vector_2" d="M38.3137 4.07408L38.28 4.94838C38.2464 5.77987 38.2082 6.61137 38.1499 7.4406C38.0983 8.19097 38.0445 8.94134 37.9727 9.68721C37.8112 11.3615 37.5981 13.0289 37.3177 14.6852C36.7659 17.9075 35.9583 21.105 34.7335 24.1628C34.1212 25.6861 33.4078 27.1778 32.5554 28.5929C31.7075 30.008 30.7272 31.3578 29.5832 32.5656C28.4481 33.7734 27.1516 34.8505 25.7204 35.7068C25.0026 36.1394 24.2511 36.509 23.466 36.8132C23.0779 36.9619 22.6764 37.0971 22.2704 37.2075C22.064 37.2616 21.8576 37.3134 21.649 37.3562C21.557 37.3765 21.4673 37.3946 21.3754 37.4081C21.2565 37.4329 21.1308 37.4509 20.9873 37.4622L20.92 37.4712L20.8482 37.4531C20.7338 37.4329 20.6194 37.4058 20.5095 37.381C17.9433 36.8042 15.496 35.6978 13.3672 34.1542C11.1419 32.5386 9.26886 30.4857 7.75246 28.2234C7.44514 27.7614 7.15353 27.286 6.87089 26.8083C7.14905 26.7023 7.43169 26.6009 7.70984 26.5063C8.92565 26.0939 10.1527 25.7266 11.3573 25.294C11.4335 25.3999 11.5098 25.5103 11.5861 25.6162C12.2658 26.5243 13.0038 27.3626 13.7844 28.113C14.5695 28.8678 15.3838 29.5461 16.2497 30.1139C17.1155 30.6863 18.0218 31.1572 18.9594 31.529C19.4664 31.7364 19.9801 31.9099 20.5095 32.0586C20.5342 32.0676 20.5566 32.0721 20.5813 32.0789H20.5902C20.7046 32.1127 20.8235 32.142 20.9402 32.1713C21.0793 32.1284 21.2228 32.0744 21.3754 32.0135C21.4471 31.9887 21.5144 31.9594 21.5862 31.9279C22.055 31.7251 22.5485 31.4795 23.0263 31.182C23.9842 30.5962 24.8994 29.8255 25.7361 28.9219C26.1533 28.4645 26.5504 27.9755 26.9385 27.464C27.322 26.9502 27.6899 26.4072 28.0354 25.8438C28.7308 24.7126 29.3387 23.4733 29.8748 22.1798C30.4109 20.8774 30.8954 19.5254 31.306 18.126C31.7165 16.7267 32.0395 15.2801 32.3445 13.8131C32.4298 13.4188 32.5061 13.0199 32.5756 12.6211C32.1068 12.8712 31.6424 13.1258 31.1736 13.376C30.882 13.5337 30.5904 13.6847 30.3032 13.8424C30.126 13.9348 29.9488 14.0294 29.7761 14.1218C28.3158 14.8902 26.8689 15.6654 25.4041 16.4203C24.0627 17.1075 22.719 17.8016 21.3731 18.4843C21.086 18.6331 20.7989 18.7773 20.5072 18.9215C20.4938 18.9305 20.4781 18.935 20.4646 18.9418C18.8069 19.7597 17.1604 20.6002 15.4915 21.3957L12.9926 22.6035L10.4779 23.791C10.4443 23.8045 10.4151 23.8203 10.3815 23.8383C9.01313 24.4738 7.63358 25.0889 6.2585 25.7131C5.97586 25.8393 5.69321 25.9678 5.41057 26.0939C4.57162 26.4838 3.71024 26.8398 2.85334 27.2094C2.00093 27.5789 1.14403 27.9439 0.273669 28.2865L0 27.8335L5.57208 24.3521L9.32494 22.0108L9.37653 21.977C12.5035 20.0256 15.6238 18.0675 18.7643 16.1386L20.5117 15.057L21.3776 14.5229L33.3607 7.12063L35.4469 5.83621L37.5734 4.5225L38.3114 4.06507L38.3137 4.07408Z" fill="var(--fill-0, #224290)"/>
</g>
</svg>
