<svg preserveAspectRatio="none" width="100%" height="100%" overflow="visible" style="display: block;" viewBox="0 0 97 17.0782" fill="none" xmlns="http://www.w3.org/2000/svg">
<g id="Group">
<path id="Vector" d="M4.27103 7.51497V9.56553H5.95342V11.2578C5.95342 12.6887 5.82781 13.6419 5.60124 14.1444C5.37468 14.6446 4.94848 14.8835 4.26879 14.8835C3.5891 14.8835 3.13822 14.6446 2.91166 14.1444C2.6851 13.6441 2.55948 12.6662 2.55948 11.2578V5.84297C2.55948 4.43687 2.6851 3.48145 2.91166 2.9812C3.13822 2.48096 3.5891 2.21731 4.24411 2.21731C5.57657 2.21731 5.95342 2.93388 5.95342 5.41258L8.51515 5.07908C8.51515 1.55032 7.18269 1.2634e-06 4.26879 1.2634e-06C1.35489 1.2634e-06 0 1.62242 0 5.41483V11.6882C0 15.4806 1.23151 17.0782 4.27103 17.0782C7.31055 17.0782 8.54207 15.4806 8.54207 11.6882V7.51497H4.27103Z" fill="var(--fill-0, #2D2E2D)"/>
<path id="Vector_2" d="M16.9832 0.191537V11.2578C16.9832 12.6887 16.8576 13.6419 16.631 14.1444C16.4044 14.6446 15.9782 14.8835 15.2986 14.8835C14.6189 14.8835 14.168 14.6446 13.9414 14.1444C13.7149 13.6441 13.5892 12.6662 13.5892 11.2578V0.191537H11.0275V11.6859C11.0275 15.4783 12.259 17.076 15.2986 17.076C18.3381 17.076 19.5696 15.4783 19.5696 11.6859V0.191537H16.9809H16.9832Z" fill="var(--fill-0, #2D2E2D)"/>
<path id="Vector_3" d="M27.183 0.191537H23.8159L20.7764 16.8867H23.4638L23.9416 13.7861H23.946L24.2848 11.5913H24.2691L25.5006 3.74509L27.0529 13.7861H27.0574L27.5351 16.8867H30.2225L27.183 0.191537Z" fill="var(--fill-0, #2D2E2D)"/>
<path id="Vector_4" d="M38.6389 11.1158C39.8704 10.4241 40.3976 8.99317 40.3976 6.63165V5.15344C40.3976 1.71932 39.267 0.193789 36.3778 0.193789H32.2571V16.889H34.8188V11.5936H36.3756L38.0333 16.889H40.6219L38.6367 11.1181L38.6389 11.1158ZM37.9862 6.15393C37.9862 7.41807 37.8852 8.2766 37.6587 8.72953C37.4321 9.18245 37.0059 9.39652 36.3778 9.39652H34.821V2.38406H36.3778C37.6587 2.38406 37.9862 3.14795 37.9862 5.65143V6.15168V6.15393Z" fill="var(--fill-0, #2D2E2D)"/>
<path id="Vector_5" d="M47.255 0.191537H42.984V16.8867H47.255C50.2945 16.8867 51.5261 15.4085 51.5261 11.6634V5.43962C51.5261 1.64721 50.2945 0.193789 47.255 0.193789V0.191537ZM48.9397 11.2353C48.9397 14.1218 48.6122 14.6942 47.2573 14.6942H45.548V2.38857H47.2573C48.5897 2.38857 48.9397 3.03303 48.9397 5.84748V11.2375V11.2353Z" fill="var(--fill-0, #2D2E2D)"/>
<path id="Vector_6" d="M60.427 14.6919V0.191537H57.8653V16.8867H64.1216V14.6919H60.4293H60.427Z" fill="var(--fill-0, #2D2E2D)"/>
<path id="Vector_7" d="M72.2083 0.191537H68.8412L65.8017 16.8867H68.4891L68.9669 13.7861H68.9713L69.3101 11.5913H69.2944L70.5259 3.74509L72.0804 13.7861H72.0849L72.5627 16.8867H75.25L72.2105 0.191537H72.2083Z" fill="var(--fill-0, #2D2E2D)"/>
<path id="Vector_8" d="M85.2479 9.30188C84.8711 8.75431 84.418 8.44335 83.8908 8.37124V8.32392C84.8711 8.01296 85.5238 6.94036 85.5238 5.72354V3.33949C85.5238 0.955427 84.4695 0.191537 81.6297 0.191537H77.2824V16.8867H81.6543C84.9698 16.8867 85.8244 15.9335 85.8244 13.4999V11.1158C85.8244 10.4488 85.6225 9.8517 85.2457 9.30414L85.2479 9.30188ZM79.8463 2.24435H81.4794C82.5606 2.24435 82.9621 2.60263 82.9621 3.65045V6.03451C82.9621 6.89304 82.3587 7.51271 81.4794 7.51271H79.8463V2.2421V2.24435ZM83.238 13.3805C83.238 14.4531 82.8859 14.8587 81.7553 14.8587H79.8463V9.56327H81.6543C82.7356 9.56327 83.238 10.1604 83.238 11.0189V13.3805Z" fill="var(--fill-0, #2D2E2D)"/>
<path id="Vector_9" d="M97 5.48694V4.72305C97 1.59989 95.6945 0 92.7783 0C89.8622 0 88.5611 1.64496 88.5611 4.7929V5.48469C88.5611 6.82093 88.7877 7.7741 89.2094 8.32167C89.6401 8.86924 90.4454 9.25231 91.576 9.44159L92.8523 9.65566C94.1624 9.86973 94.4091 10.3001 94.4091 11.8256V12.3732C94.4091 14.2097 93.9851 14.8542 92.7761 14.8542C91.567 14.8542 91.1228 14.2097 91.1228 12.3732V11.5868H88.5611V12.3732C88.5611 15.4491 89.8375 17.0715 92.7783 17.0715C95.8694 17.0715 97 15.4491 97 12.3011V11.5845C96.9753 9.12838 96.17 7.86424 93.9605 7.57806L92.6796 7.43384C91.3741 7.21978 91.1251 6.78938 91.1251 5.26386V4.71629C91.1251 2.8798 91.5782 2.2128 92.7783 2.2128C93.9784 2.2128 94.4114 2.8798 94.4114 4.71629V5.48018H97V5.48694Z" fill="var(--fill-0, #2D2E2D)"/>
</g>
</svg>
