<svg preserveAspectRatio="none" width="100%" height="100%" overflow="visible" style="display: block;" viewBox="0 0 40 40" fill="none" xmlns="http://www.w3.org/2000/svg">
<g id="Search Button">
<rect width="40" height="40" rx="10" fill="var(--fill-0, #D9E3FD)"/>
<path id="Vector" fill-rule="evenodd" clip-rule="evenodd" d="M19.989 10.0007C19.9968 9.99976 20.0036 9.99976 20.0113 10.0007C22.4595 10.0353 24.4172 12.0334 24.3863 14.4662V14.6152H25.4188C25.4227 14.6152 25.4266 14.6152 25.4304 14.6162C26.8675 14.6364 28.0164 15.8085 27.9996 17.2355V25.5336C28.0306 27.9662 26.0729 29.9644 23.6236 29.999C23.6198 30 23.6159 30 23.613 30H16.387C16.3831 30 16.3793 30 16.3764 29.999C13.9271 29.9644 11.9694 27.9663 12.0004 25.5336V17.2355C11.9839 15.8086 13.1326 14.6363 14.5696 14.6162C14.5734 14.6152 14.5763 14.6152 14.5802 14.6152H15.6128V14.4662C15.5818 12.0336 17.5395 10.0354 19.9888 10.0007H19.989ZM15.613 16.1536H14.5873C14.0047 16.1642 13.5402 16.6411 13.5479 17.2199V25.5488C13.5257 27.1334 14.7992 28.4362 16.3929 28.4612H23.6071C25.201 28.4362 26.4734 27.1333 26.4522 25.5488L26.4512 25.5411V17.2305L26.4522 17.2199C26.4599 16.6411 25.9954 16.1641 25.4128 16.1536H24.3861V18.1536C24.3861 18.5786 24.0397 18.9228 23.6129 18.9228C23.1852 18.9228 22.8387 18.5786 22.8387 18.1536V16.1536H17.1611V18.1536C17.1611 18.5786 16.8147 18.9228 16.3869 18.9228C15.9592 18.9228 15.6128 18.5786 15.6128 18.1536L15.613 16.1536ZM17.1614 14.6151H22.839V14.4507C22.8613 12.868 21.5916 11.5659 19.9998 11.5383C18.4089 11.5661 17.1393 12.8681 17.1605 14.4507C17.1615 14.4545 17.1615 14.4574 17.1615 14.4613L17.1614 14.6151Z" fill="var(--fill-0, #050F2C)"/>
</g>
</svg>
