<svg preserveAspectRatio="none" width="100%" height="100%" overflow="visible" style="display: block;" viewBox="0 0 32 32" fill="none" xmlns="http://www.w3.org/2000/svg">
<g id="Search Button">
<rect width="32" height="32" rx="5" fill="var(--fill-0, #D9E3FD)"/>
<path id="Vector" fill-rule="evenodd" clip-rule="evenodd" d="M15.989 6.00072C15.9968 5.99976 16.0036 5.99976 16.0113 6.00072C18.4595 6.03534 20.4172 8.03343 20.3863 10.4662V10.6152H21.4188C21.4227 10.6152 21.4266 10.6152 21.4304 10.6162C22.8675 10.6364 24.0164 11.8085 23.9996 13.2355V21.5336C24.0306 23.9662 22.0729 25.9644 19.6236 25.999C19.6198 26 19.6159 26 19.613 26H12.387C12.3831 26 12.3793 26 12.3764 25.999C9.92711 25.9644 7.9694 23.9663 8.00036 21.5336V13.2355C7.98391 11.8086 9.13259 10.6363 10.5696 10.6162C10.5734 10.6152 10.5763 10.6152 10.5802 10.6152H11.6128V10.4662C11.5818 8.03355 13.5395 6.03539 15.9888 6.00072H15.989ZM11.613 12.1536H10.5873C10.0047 12.1642 9.54018 12.6411 9.54793 13.2199V21.5488C9.52567 23.1334 10.7992 24.4362 12.3929 24.4612H19.6071C21.201 24.4362 22.4734 23.1333 22.4522 21.5488L22.4512 21.5411V13.2305L22.4522 13.2199C22.4599 12.6411 21.9954 12.1641 21.4128 12.1536H20.3861V14.1536C20.3861 14.5786 20.0397 14.9228 19.6129 14.9228C19.1852 14.9228 18.8387 14.5786 18.8387 14.1536V12.1536H13.1611V14.1536C13.1611 14.5786 12.8147 14.9228 12.3869 14.9228C11.9592 14.9228 11.6128 14.5786 11.6128 14.1536L11.613 12.1536ZM13.1614 10.6151H18.839V10.4507C18.8613 8.86799 17.5916 7.56595 15.9998 7.53826C14.4089 7.56614 13.1393 8.86807 13.1605 10.4507C13.1615 10.4545 13.1615 10.4574 13.1615 10.4613L13.1614 10.6151Z" fill="var(--fill-0, #050F2C)"/>
</g>
</svg>
