<svg preserveAspectRatio="none" width="100%" height="100%" overflow="visible" style="display: block;" viewBox="0 0 40 40" fill="none" xmlns="http://www.w3.org/2000/svg">
<g id="Search Button">
<rect width="40" height="40" rx="10" fill="var(--fill-0, #D9E3FD)"/>
<path id="Vector" d="M14.1045 22.0186C18.0326 21.6013 21.96 21.5982 25.8867 22.0215L25.8887 22.0225L25.9033 22.0244C26.6987 22.1149 27.4324 22.5122 27.958 23.1357L28.0605 23.2637C28.5913 23.9603 28.8318 24.8497 28.7256 25.7314V25.7334L28.5186 27.4707C28.3586 28.7801 27.2842 29.7498 26.0254 29.75H13.9795C12.7205 29.7498 11.6461 28.7802 11.4863 27.4707L11.2764 25.7373L11.2598 25.5713C11.1978 24.7415 11.4403 23.9165 11.9395 23.2607C12.4686 22.5666 13.2418 22.1211 14.0879 22.0195H14.0918L14.1045 22.0186ZM25.8076 22.9473C21.9371 22.5302 18.0682 22.5307 14.1973 22.9414H14.1943C13.5743 23.0128 13.0098 23.3382 12.626 23.8418C12.2901 24.2825 12.1176 24.8285 12.1318 25.3818L12.1494 25.6191L12.3613 27.3525C12.4622 28.185 13.1511 28.8212 13.9795 28.8213H26.0244C26.8529 28.8213 27.5426 28.1851 27.6436 27.3525C27.7091 26.8122 27.7829 26.2083 27.8486 25.6221C27.8491 25.6186 27.8503 25.6152 27.8506 25.6123L27.8516 25.5879C27.9117 25.0448 27.7898 24.4985 27.5068 24.04L27.373 23.8457C26.9911 23.3441 26.4287 23.0188 25.8096 22.9473L25.8076 22.959V22.9473ZM20.002 10.25C22.5241 10.25 24.5879 12.3713 24.5879 15C24.5879 17.6287 22.5241 19.75 20.002 19.75C17.48 19.7498 15.417 17.6285 15.417 15C15.417 12.3714 17.48 10.2502 20.002 10.25ZM20.002 11.1787C17.9497 11.1789 16.2988 12.8986 16.2988 15C16.2989 17.1014 17.9497 18.8211 20.002 18.8213C22.0543 18.8213 23.706 17.1015 23.7061 15C23.7061 12.8985 22.0544 11.1787 20.002 11.1787Z" fill="var(--fill-0, #050F2C)" stroke="var(--stroke-0, #050F2C)" stroke-width="0.5"/>
</g>
</svg>
